<svg xmlns="http://www.w3.org/2000/svg" viewBox="0 0 96 40">
  <path
    fill="#1d2648"
    d="M32.107 39v-.894l2.616-1.053c.64-.263.746-.58.746-1.738V4.79c0-1.107-.16-1.527-.96-1.738L32 2.368v-1L43.264 0l.372.263v35.052c0 1.159.108 1.475.749 1.738L47 38.106V39H32.107"
  />
  <path
    fill="#1d2648"
    d="M47.107 38.102L49.723 37c.64-.219.748-.537.748-1.7V16c0-1.098-.161-1.52-.962-1.732L47 13.58v-1.004l11.263-1.375.374.265V35.3c0 1.163.107 1.481.747 1.7L62 38.102V39H47.107zm7.367-30.228C51.377 7.874 50 6.077 50 4c0-1.94 1.27-4 4.633-4 3.097 0 4.538 1.585 4.538 3.857 0 2.59-1.922 4.017-4.697 4.017z"
  />
  <path
    fill="#1d2648"
    d="M85.328 39.784l-.382-.268-.383-2.953h-.383C81.608 38.711 78.87 40 75 40c-4.885 0-8.442-3.115-8.442-8.217V15.887c0-1.127-.164-1.557-.986-1.772L63 13.417v-1.02L74.548 11l.383.27V30c0 3.233 1.806 5.488 5.069 5.488 1.388 0 2.701-.488 3.797-1.395V15.887c0-1.127-.165-1.557-.986-1.772l-2.572-.698v-1.02L91.786 11l.384.27v21.533l.273 2.095c.165 1.102.165 1.557.986 1.772l2.571.698v1.02l-10.672 1.396"
  />
  <path
    fill="#1d2648"
    d="M1.207 30.587C-1.697 23 .47 14.742 9.555 11.247c8.937-3.438 15.317.55 18.22 8.095C31 27.78 27.66 35.628 19.469 38.78 11.076 42 4.322 38.68 1.208 30.587zm8.046-16.716c-3.525 1.356-2.97 5.76-1.117 10.575 1.51 3.922 6.519 13.678 11.434 11.787 3.575-1.375 3.208-5.736 1.354-10.552-1.547-4.021-6.656-13.739-11.67-11.81z"
  />
  <path fill="#a3a39f" d="M32.524 19.814c-.198-.2-.183-.404-.045-.628.2.2.173.404.045.628" />
</svg>
