<svg viewBox="0 0 142 48" fill="#0b579e" xmlns="http://www.w3.org/2000/svg">
  <path
    fill-rule="evenodd"
    clip-rule="evenodd"
    d="M15.5322 8.17442C24.097 8.17442 31.0651 15.2891 31.0651 24.034C31.0651 32.7781 24.097 39.8928 15.5322 39.8928C11.78 39.8928 8.33451 38.5267 5.64695 36.2573V48H0V25.1597H0.0429952C0.0174896 24.787 0 24.4119 0 24.034C0 15.2891 6.96741 8.17442 15.5322 8.17442ZM102.656 6.93839C104.875 6.93839 106.992 7.38557 108.932 8.1899C100.749 8.50389 94.1682 15.3098 93.9976 23.6997C93.9933 23.8113 93.9809 23.9207 93.9809 24.0338C93.9809 24.1462 93.9933 24.2555 93.9976 24.3672C94.1682 32.7571 100.749 39.5637 108.932 39.8777C106.992 40.6813 104.875 41.1278 102.656 41.1278C93.4234 41.1278 85.9131 33.4603 85.9131 24.0338C85.9131 14.6074 93.4234 6.93839 102.656 6.93839ZM67.1658 8.17442C75.7306 8.17442 82.6987 15.2891 82.6987 24.034C82.6987 32.7781 75.7306 39.8928 67.1658 39.8928C58.601 39.8928 51.6336 32.7781 51.6336 24.034C51.6336 15.2891 58.601 8.17442 67.1658 8.17442ZM141.389 0V5.76643C135.487 5.76643 130.646 10.4793 130.277 16.4116H135.474V22.1781H130.251V39.1991H124.604V17.1386C124.604 7.68907 132.134 0 141.389 0ZM50.6272 8.23781V14.0042C44.4855 14.0042 39.4893 19.1055 39.4893 25.3764V39.1987H33.8416V25.3764C33.8416 15.9261 41.3716 8.23781 50.6272 8.23781ZM67.1658 13.9401C61.7156 13.9401 57.2805 18.4684 57.2805 24.034C57.2805 29.5988 61.7156 34.1263 67.1658 34.1263C72.6167 34.1263 77.051 29.5988 77.051 24.034C77.051 18.4684 72.6167 13.9401 67.1658 13.9401ZM109.521 13.9398C114.747 13.9398 119.036 18.1013 119.382 23.3484C119.391 23.5761 119.399 23.803 119.399 24.0337C119.399 24.2628 119.391 24.4905 119.382 24.7182C119.035 29.9653 114.747 34.126 109.521 34.126C107.671 34.126 105.939 33.6037 104.457 32.696C108.378 31.8477 111.331 28.2874 111.331 24.0337C111.331 19.7799 108.378 16.2196 104.456 15.3699C105.939 14.4636 107.671 13.9398 109.521 13.9398ZM15.5322 13.9401C10.082 13.9401 5.64695 18.4684 5.64695 24.034C5.64695 29.5988 10.082 34.1263 15.5322 34.1263C20.9831 34.1263 25.4174 29.5988 25.4174 24.034C25.4174 18.4684 20.9831 13.9401 15.5322 13.9401Z"
  />
</svg>
