<svg width="24" height="24" viewBox="0 0 24 24" fill="none" xmlns="http://www.w3.org/2000/svg">
  <path
    fill-rule="evenodd"
    clip-rule="evenodd"
    d="M2.61446 0.446268C2.01637 -0.148756 1.04666 -0.148756 0.448571 0.446268C-0.149524 1.04129 -0.149524 2.00602 0.448571 2.60104L9.89605 12L0.448645 21.399C-0.149449 21.994 -0.149449 22.9587 0.448645 23.5537C1.04674 24.1488 2.01644 24.1488 2.61454 23.5537L12.0619 14.1548L21.3855 23.4305C21.9836 24.0255 22.9533 24.0255 23.5514 23.4305C24.1495 22.8355 24.1495 21.8708 23.5514 21.2757L14.2278 12L23.5515 2.72425C24.1496 2.12923 24.1496 1.1645 23.5515 0.569476C22.9534 -0.0255489 21.9837 -0.0255489 21.3856 0.569475L12.0619 9.84526L2.61446 0.446268Z"
    fill="currentColor"
  />
</svg>
