<svg width="24" height="24" viewBox="0 0 24 25" fill="currentColor" xmlns="http://www.w3.org/2000/svg">
  <path
    fill-rule="evenodd"
    clip-rule="evenodd"
    d="M0 6.59668C0 5.76825 0.671573 5.09668 1.5 5.09668H30.5C31.3284 5.09668 32 5.76825 32 6.59668C32 7.42511 31.3284 8.09668 30.5 8.09668H1.5C0.671573 8.09668 0 7.42511 0 6.59668Z"
  />
  <path
    fill-rule="evenodd"
    clip-rule="evenodd"
    d="M0 15.5967C0 14.7683 0.671573 14.0967 1.5 14.0967H30.5C31.3284 14.0967 32 14.7683 32 15.5967C32 16.4251 31.3284 17.0967 30.5 17.0967H1.5C0.671573 17.0967 0 16.4251 0 15.5967Z"
  />
  <path
    fill-rule="evenodd"
    clip-rule="evenodd"
    d="M0 24.5967C0 23.7683 0.671573 23.0967 1.5 23.0967H30.5C31.3284 23.0967 32 23.7683 32 24.5967C32 25.4251 31.3284 26.0967 30.5 26.0967H1.5C0.671573 26.0967 0 25.4251 0 24.5967Z"
  />
</svg>
