<svg width="24" height="24" viewBox="0 0 24 24" fill="none" xmlns="http://www.w3.org/2000/svg">
  <path
    fill-rule="evenodd"
    clip-rule="evenodd"
    d="M18.4965 16.6072L23.8288 21.947C24.067 22.2119 24.0553 22.6175 23.8022 22.8681L22.869 23.8026C22.7439 23.9289 22.5735 24 22.3958 24C22.2181 24 22.0477 23.9289 21.9225 23.8026L16.5902 18.4628C16.4427 18.315 16.3089 18.1541 16.1903 17.9822L15.1905 16.6473C13.5362 17.9701 11.4819 18.6904 9.3649 18.6897C5.00253 18.7049 1.2118 15.6915 0.236926 11.4335C-0.737949 7.17548 1.36322 2.80931 5.29647 0.919885C9.22972 -0.969544 13.9453 0.122017 16.6515 3.54833C19.3577 6.97465 19.3323 11.8213 16.5902 15.2189L17.9233 16.14C18.1315 16.2734 18.3238 16.4302 18.4965 16.6072ZM2.69971 9.34511C2.69971 13.0315 5.68391 16.0198 9.36512 16.0198C11.1329 16.0198 12.8283 15.3166 14.0783 14.0648C15.3283 12.8131 16.0305 11.1154 16.0305 9.34511C16.0305 5.65878 13.0463 2.67041 9.36512 2.67041C5.68391 2.67041 2.69971 5.65878 2.69971 9.34511Z"
    fill="currentColor"
  />
</svg>
