<svg viewBox="0 0 24 24" fill="none" xmlns="http://www.w3.org/2000/svg">
  <path
    fill-rule="evenodd"
    clip-rule="evenodd"
    d="M5.37614 23.2963V7.38071H0.401204V23.2963H5.37614ZM4.9256 1.53928C4.38537 1.0019 3.65267 0.700012 2.88867 0.700012C2.12394 0.700009 1.39041 1.00164 0.84891 1.53879C0.307409 2.07593 0.00212426 2.80475 0 3.56545C0 4.32752 0.304339 5.05839 0.846069 5.59726C1.3878 6.13613 2.12255 6.43886 2.88867 6.43886C3.26764 6.43886 3.64288 6.36449 3.9929 6.21999C4.34292 6.07549 4.66084 5.8637 4.92844 5.59678C5.19604 5.32985 5.40805 5.01302 5.55234 4.66445C5.69664 4.31588 5.77037 3.94241 5.76932 3.56545C5.76932 2.80548 5.46582 2.07665 4.9256 1.53928ZM13.2638 7.38073H8.49748V23.2963H13.4644V15.4183C13.4644 13.3431 13.8656 11.3077 16.4493 11.3077C19.0331 11.3077 19.0331 13.6783 19.0331 15.5221V23.2643H24V14.5323C24 10.2462 23.0692 6.9577 18.0381 6.9577C17.0906 6.92536 16.1522 7.15053 15.3237 7.60899C14.4952 8.06746 13.808 8.74187 13.336 9.55973H13.2638V7.38073Z"
    fill="currentColor"
  />
</svg>
