<svg viewBox="0 0 24 20" fill="none" xmlns="http://www.w3.org/2000/svg">
  <path
    d="M24 2.49548C23.1019 2.91091 22.1473 3.18899 21.1678 3.32055C22.1966 2.69916 22.9672 1.7231 23.337 0.573061C22.3707 1.15197 21.3131 1.55942 20.2101 1.77766C19.7498 1.28194 19.1932 0.88696 18.5751 0.617276C17.9569 0.347591 17.2902 0.208969 16.6166 0.210028C15.3141 0.210028 14.0649 0.731591 13.1438 1.65998C12.2228 2.58836 11.7053 3.84752 11.7053 5.16045C11.7066 5.54101 11.7505 5.9202 11.8363 6.2908C9.87776 6.19667 7.96108 5.68642 6.21187 4.79347C4.46266 3.90053 2.92042 2.64506 1.68622 1.10936C1.25588 1.86247 1.02739 2.71549 1.02319 3.58457C1.02199 4.40049 1.22089 5.20405 1.60219 5.92378C1.98349 6.64351 2.53537 7.25709 3.20873 7.70992C2.42833 7.68498 1.66507 7.47284 0.982262 7.09112V7.14887C0.979007 8.29525 1.37057 9.40722 2.09011 10.295C2.80966 11.1828 3.81257 11.7913 4.92769 12.0168C4.50644 12.1337 4.0713 12.192 3.63437 12.1901C3.32388 12.1897 3.01414 12.1593 2.70941 12.0993C3.0213 13.0873 3.6331 13.9517 4.45848 14.5705C5.28387 15.1893 6.28116 15.5312 7.30968 15.5481C5.55585 16.9168 3.3967 17.6519 1.17871 17.6355C0.784637 17.636 0.390948 17.6112 0 17.5613C2.25087 19.0198 4.8712 19.7932 7.54706 19.789C16.6085 19.789 21.5525 12.2313 21.5525 5.672C21.5525 5.45748 21.5525 5.24296 21.5525 5.02844C22.5107 4.33682 23.3394 3.47918 24 2.49548Z"
    fill="currentColor"
  />
</svg>
