<svg xmlns="http://www.w3.org/2000/svg" fill="black" viewBox="0 0 250 100">
  <path
    d="M116,39.48a11.48,11.48,0,0,1-2.46,7.76,9.42,9.42,0,0,1-13.52,0,11.58,11.58,0,0,1-2.45-7.79,11.37,11.37,0,0,1,2.47-7.75,8.54,8.54,0,0,1,6.76-2.82,8.42,8.42,0,0,1,6.76,2.84A11.54,11.54,0,0,1,116,39.48Zm-16.87,0q0,4.43,2,6.84a6.86,6.86,0,0,0,5.67,2.42,6.94,6.94,0,0,0,5.68-2.39c1.32-1.6,2-3.89,2-6.87s-.65-5.25-2-6.83a7.91,7.91,0,0,0-11.33,0Q99.15,35.07,99.14,39.48Z"
  />
  <path
    d="M125.79,50.1a5.61,5.61,0,0,1-5.16-2.65h-.1l0,1.18c0,.7,0,1.46,0,2.28v5.84h-1.39V34.49h1.18l.27,2.18h.08a5.56,5.56,0,0,1,5-2.48,5.68,5.68,0,0,1,4.73,2,9.29,9.29,0,0,1,1.63,5.93A9,9,0,0,1,130.47,48,5.77,5.77,0,0,1,125.79,50.1Zm0-1.24a4.29,4.29,0,0,0,3.65-1.75,8.13,8.13,0,0,0,1.29-4.9q0-6.75-4.88-6.75a4.87,4.87,0,0,0-3.93,1.47q-1.26,1.49-1.26,4.81v.45q0,3.59,1.21,5.13A4.69,4.69,0,0,0,125.76,48.86Z"
  />
  <path
    d="M142.06,50.1A6.71,6.71,0,0,1,136.85,48,8.31,8.31,0,0,1,135,42.27a9,9,0,0,1,1.8-5.87,6,6,0,0,1,4.87-2.21,5.26,5.26,0,0,1,4.27,1.89,7.82,7.82,0,0,1,1.56,5.13v1.13h-11a7.21,7.21,0,0,0,1.48,4.82,5.17,5.17,0,0,0,4.13,1.67,12.11,12.11,0,0,0,2.31-.19,13.58,13.58,0,0,0,2.52-.79v1.27a10.84,10.84,0,0,1-2.4.77A12.94,12.94,0,0,1,142.06,50.1Zm-.4-14.67a4.62,4.62,0,0,0-3.56,1.46,6.9,6.9,0,0,0-1.56,4.21H146a6.71,6.71,0,0,0-1.15-4.17A3.82,3.82,0,0,0,141.66,35.43Z"
  />
  <path
    d="M161.86,49.81V39.87a4.84,4.84,0,0,0-1-3.36,3.94,3.94,0,0,0-3-1,5.2,5.2,0,0,0-4,1.39c-.86.93-1.28,2.43-1.28,4.5v8.46h-1.4V34.49h1.19l.27,2.1h.08q1.5-2.4,5.32-2.4,5.21,0,5.21,5.6v10Z"
  />
  <path
    d="M204.64,46.53a15.62,15.62,0,0,1-1.85-.06v-5.9h1.63c2.37,0,4.28.83,4.28,2.92s-1.91,3-4.06,3m-1.85-13.68h2c2.16,0,3.31.76,3.31,2.35s-1.24,1.94-3.78,1.94h-1.56Zm-21.21-4,1.23,4h5v17h4.76v-17h5.48V49.74a38.16,38.16,0,0,0,5.16.31c4.2,0,6.76-.69,8.3-1.9a5.6,5.6,0,0,0,2.19-4.48,5.07,5.07,0,0,0-4.07-5.1V38.5C212,37.6,213,36,213,34.16A4.59,4.59,0,0,0,210.48,30c-1.56-.9-3.32-1.13-6.23-1.13Zm-2.89,12-1.32-4.45c-.37-1.24-.75-2.79-1.06-4h-.06c-.31,1.25-.63,2.83-1,4L174,40.91Zm-5.35,3.54-1.51,5.38h-4.91l6.42-20.95h6.26l6.57,21H181l-1.62-5.38Z"
  />
  <path
    d="M78.75,11.28H46.25L30,39.43,46.25,67.57h32.5L95,39.43Zm-2.91,4.08,13.83,24-3.08,5.33L73.11,21.07H68.67L72,15.36Zm-22.67,24L59.66,50.6l-.81,1.47H54.61l-7.3-12.82,13.3-23.07h5.92Zm9.33,6.3L58.73,39.1l3.78-6.53,3.75,6.53ZM49.06,16.18h6L44.45,34.53l-3-5.2Zm0,46.5L35.44,39l3.1-5.37L51.89,57h4.35l-3.32,5.71Zm22.7-23.92L65.34,27.47l.87-1.5h4.24L77.8,38.8,64.45,61.86h-6Zm4.11,23.92H70l10.6-18.39,2.95,5.14Z"
  />
</svg>
