<svg viewBox="0 0 32 29" fill="none" xmlns="http://www.w3.org/2000/svg">
  <path
    d="M31.5715 3.73139e-07H29.0773C29.0021 -2.58291e-05 28.9282 0.0200825 28.8632 0.0582878C28.7981 0.0964931 28.7442 0.151438 28.7069 0.217554L20.767 14.2558L12.9315 0.21955C12.8941 0.152905 12.8399 0.0974828 12.7745 0.0589195C12.7091 0.0203562 12.6348 2.74123e-05 12.5591 3.73139e-07H0.377352C0.311517 0.00011942 0.246859 0.017688 0.189801 0.0509606C0.132744 0.0842332 0.0852734 0.132052 0.0521071 0.189664C0.0189407 0.247277 0.00123286 0.312679 0.000742874 0.379372C0.00025289 0.446064 0.0169978 0.511726 0.049314 0.569832L15.5804 28.3898C15.6178 28.4452 15.6679 28.4905 15.7264 28.5218C15.7849 28.5531 15.8501 28.5694 15.9163 28.5694C15.9825 28.5694 16.0477 28.5531 16.1063 28.5218C16.1648 28.4905 16.2149 28.4452 16.2522 28.3898L31.9429 0.648671C31.9803 0.582771 31.9998 0.508084 31.9996 0.432107C31.9995 0.356129 31.9796 0.281535 31.9419 0.215812C31.9043 0.150089 31.8503 0.0955498 31.7853 0.0576695C31.7202 0.0197892 31.6465 -9.93449e-05 31.5715 3.73139e-07Z"
    fill="currentColor"
  />
</svg>
